<svg clip-rule="evenodd" fill-rule="evenodd" stroke-linejoin="round" stroke-miterlimit="1.41421" viewBox="0 0 1759 758" xmlns="http://www.w3.org/2000/svg"><g fill-rule="nonzero" transform="matrix(4.16667 0 0 4.16667 -385.4 -338.477)"><path d="m184.95 82.462 70.35 47.31c.393.265.753.574 1.065.931.593.677 1.521 1.876 1.962 3.174.406 1.193.436 2.592.412 3.379-.012.376-.072.744-.178 1.104l-13.876 47.399c-.077.265-.186.516-.33.752-.392.639-1.272 1.921-2.403 2.616-1.059.653-2.735.887-3.539.965-.286.028-.569.023-.855-.011l-8.189-.662s-6.905-2.39-15.958-2.625c-3.581-.093-46.646 17.625-46.646 17.625l-19.345 20.602c-.167.178-.345.337-.542.482-.642.472-2.143 1.475-3.676 1.749-2.575.461-5.625-1-5.625-1l-25.668-10.736c-.231-.097-.444-.218-.643-.37-.7-.534-2.416-1.918-3.439-3.394-1.535-2.216-2.125-5-2.125-5l-13.08-51.698c-.032-.127-.054-.249-.066-.379-.065-.71-.219-3.143.521-5.048.547-1.406 1.58-2.641 2.031-3.14.127-.141.263-.269.412-.387l79.867-63.099c.24-.189.491-.36.759-.506.726-.397 2.245-1.124 3.806-1.243 1.413-.107 2.936.315 3.798.61.427.146.826.348 1.2.6" fill="#1d8592"/><path d="m235.42 134.152c-9.38 4.87-19.49 10.84-28.16 17.33-34.72 25.99-38.78 48.4-40.5 52.93-5.91-14.6-14.56-27.51-42.05-44.46-9.85-6.07-20.17-10.16-30.08-12.9.19-.24.36-.43.48-.57s.26-.27.41-.39l60.78-48.02c8.59 9.51 20.33 19.7 39.98 27.7 13.44 5.48 26.94 7.78 39.14 8.38" fill="#208692"/><path d="m166.76 204.412-19.34 20.6c-.17.18-.35.34-.54.49-.65.47-2.15 1.47-3.68 1.75-2.57.46-5.62-1-5.62-1l-25.67-10.74c-.23-.1-.45-.22-.65-.37-.7-.53-2.41-1.92-3.43-3.39-1.54-2.22-2.13-5-2.13-5l-13.08-51.7c-.03-.13-.05-.25-.07-.38-.06-.71-.21-3.14.53-5.05.39-1.02 1.04-1.95 1.55-2.57 9.91 2.74 20.23 6.83 30.08 12.9 27.49 16.95 36.14 29.86 42.05 44.46" fill="#3f6575"/><path d="m256.36 130.702c-.31-.36-.67-.67-1.06-.93l-4.47-3.01-65.88-44.3c-.38-.26-.78-.46-1.2-.6-.86-.3-2.39-.72-3.8-.61-1.56.11-3.08.84-3.81 1.24-.26.14-.51.32-.75.5l-19.09 15.08c8.59 9.51 20.33 19.7 39.98 27.7 13.44 5.48 26.94 7.78 39.14 8.38 8.34.41 16.07.03 22.75-.68-.48-1.14-1.27-2.17-1.81-2.77" fill="#409da5"/><path d="m258.74 137.252c-.01.38-.08.74-.18 1.1l-13.88 47.4c-.07.27-.18.52-.33.75-.39.64-1.27 1.93-2.4 2.62-1.06.65-2.74.89-3.54.97-.29.02-.57.02-.85-.02l-8.19-.66s-6.91-2.39-15.96-2.62c-3.58-.1-46.65 17.62-46.65 17.62 1.72-4.53 5.78-26.94 40.5-52.93 8.67-6.49 18.78-12.46 28.16-17.33 8.34.41 16.07.03 22.75-.68.06.13.11.26.16.4.4 1.19.43 2.59.41 3.38" fill="#78b3bb"/><path d="m190.092 165.815c-7.447 2.843-15.821-.903-18.664-8.351-2.846-7.451.901-15.826 8.348-18.669 7.452-2.845 15.827.903 18.67 8.353 2.845 7.448-.903 15.822-8.354 18.667m41.323-26.034c-5.708 2.179-8.577 8.594-6.398 14.301.584 1.534 1.483 2.855 2.586 3.936l-9.061 17.542c-.021-.007-.043-.018-.066-.026-3.504-1.174-7.222-1.078-10.623.238l-6.189-8.274c5.537-6.116 7.546-15.041 4.407-23.261-4.448-11.655-17.551-17.516-29.206-13.067-3.371 1.287-6.236 3.313-8.528 5.803l-7.793-4.808c.603-2.841.24-5.78-1.074-8.411-1.534-3.089-4.182-5.393-7.455-6.49-3.269-1.095-6.765-.857-9.845.683-3.088 1.531-5.394 4.175-6.493 7.445-1.1 3.273-.858 6.778.679 9.868 1.538 3.088 4.185 5.392 7.456 6.488 2.861.958 5.9.891 8.676-.169.397-.152.791-.325 1.176-.517 1.01-.501 1.927-1.131 2.754-1.853l7.563 4.666c-1.577 3.915-2.072 8.264-1.264 12.581l-22.277 8.442c-4.918-7.041-14.518-9.324-22.156-4.992-8.057 4.612-10.879 14.922-6.29 22.983l.003.006c4.171 7.302 13.018 10.304 20.638 7.395.796-.304 1.579-.672 2.341-1.108 3.91-2.229 6.719-5.846 7.909-10.186.589-2.144.744-4.337.483-6.479l22.269-8.44c5.564 9.129 17.027 13.31 27.366 9.363.753-.288 1.482-.615 2.186-.973l6.075 8.121c-1.148 1.428-2.059 3.051-2.659 4.839-1.334 3.974-1.04 8.229.828 11.984l.001.003c1.872 3.753 5.09 6.553 9.065 7.885 3.479 1.166 7.171 1.085 10.552-.205.482-.185.96-.395 1.429-.629 7.748-3.855 10.916-13.295 7.061-21.042-.595-1.194-1.339-2.279-2.187-3.264l9.791-18.958c1.385.03 2.8-.195 4.173-.719 5.708-2.179 8.578-8.595 6.399-14.303-2.179-5.706-8.594-8.577-14.302-6.398" fill="#fff"/><path d="m140.679 132.255c1.516 3.97 5.962 5.959 9.932 4.444 3.97-1.516 5.959-5.962 4.444-9.932-1.516-3.97-5.962-5.96-9.932-4.444-3.97 1.515-5.96 5.962-4.444 9.932" fill="#1d8592"/><path d="m204.667 193.836c1.869 4.896 7.353 7.35 12.249 5.481 4.897-1.87 7.35-7.354 5.481-12.25s-7.353-7.35-12.249-5.481c-4.896 1.87-7.35 7.354-5.481 12.25" fill="#78b3bb"/><path d="m117.296 178.127c1.958 5.128 7.702 7.698 12.83 5.74 5.128-1.957 7.698-7.702 5.74-12.83s-7.702-7.698-12.83-5.74-7.698 7.702-5.74 12.83" fill="#3f6575"/><path d="m171.112 157.821c2.932 7.679 11.533 11.527 19.212 8.596 7.679-2.932 11.527-11.533 8.596-19.212-2.932-7.679-11.533-11.527-19.212-8.596-7.679 2.932-11.528 11.533-8.596 19.212" fill="#1d8592"/><path d="m229.509 152.467c1.236 3.237 4.861 4.859 8.098 3.623s4.859-4.861 3.623-8.098c-1.236-3.236-4.861-4.859-8.098-3.623s-4.859 4.861-3.623 8.098" fill="#78b3bb"/><g fill="#182946"><path d="m182.148 214.183h10.324l10.15 26.912h.116l10.324-26.912h9.686l-16.936 41.064h-7.25z"/><path d="m250.782 224.855c-.891-1.082-1.982-1.914-3.277-2.494-1.296-.579-2.794-.869-4.495-.869-1.703 0-3.277.328-4.727.985-1.45.658-2.707 1.576-3.771 2.755-1.063 1.181-1.894 2.581-2.494 4.205-.599 1.624-.898 3.384-.898 5.278 0 1.934.299 3.703.898 5.307.6 1.605 1.422 2.997 2.466 4.177 1.044 1.179 2.271 2.097 3.683 2.755 1.411.657 2.928.985 4.552.985 1.857 0 3.5-.386 4.931-1.159 1.43-.774 2.61-1.857 3.537-3.248l7.54 5.626c-1.739 2.435-3.943 4.233-6.611 5.393s-5.414 1.741-8.236 1.741c-3.21 0-6.168-.503-8.874-1.508-2.707-1.006-5.046-2.446-7.018-4.322-1.973-1.875-3.51-4.147-4.611-6.815-1.102-2.668-1.654-5.645-1.654-8.932 0-3.286.552-6.263 1.654-8.931 1.101-2.668 2.638-4.94 4.611-6.816 1.972-1.875 4.311-3.315 7.018-4.321 2.706-1.005 5.664-1.508 8.874-1.508 1.16 0 2.368.108 3.625.32 1.256.212 2.494.55 3.712 1.014 1.217.464 2.387 1.083 3.508 1.857 1.121.773 2.126 1.72 3.017 2.841z"/><path d="m272.579 231.177h5.336c.812 0 1.673-.029 2.581-.087s1.73-.232 2.466-.522c.733-.29 1.343-.744 1.826-1.363.483-.618.726-1.488.726-2.61 0-1.044-.213-1.875-.639-2.494-.426-.618-.967-1.092-1.623-1.421-.658-.328-1.412-.551-2.263-.667-.85-.116-1.681-.174-2.494-.174h-5.916zm-9.048-16.994h15.893c2.088 0 4.068.203 5.944.609 1.875.406 3.519 1.083 4.931 2.031 1.411.947 2.531 2.223 3.363 3.827.831 1.605 1.247 3.606 1.247 6.003 0 2.9-.754 5.365-2.262 7.395-1.507 2.03-3.712 3.316-6.612 3.858l10.44 17.341h-10.845l-8.584-16.414h-4.467v16.414h-9.048z"/><path d="m310.401 231.583h6.032c.813 0 1.595-.077 2.35-.232.754-.155 1.43-.415 2.029-.784.6-.366 1.082-.869 1.45-1.507s.551-1.44.551-2.408c0-1.044-.242-1.884-.724-2.522-.485-.638-1.103-1.131-1.857-1.48-.754-.347-1.595-.569-2.522-.667-.929-.095-1.819-.144-2.668-.144h-4.641zm-9.048-17.4h15.254c2.126 0 4.138.194 6.032.58 1.895.386 3.547 1.053 4.959 2.001 1.411.948 2.532 2.223 3.364 3.828.831 1.605 1.247 3.625 1.247 6.06 0 2.399-.387 4.409-1.16 6.033-.774 1.624-1.836 2.919-3.19 3.886s-2.958 1.653-4.813 2.059c-1.857.406-3.868.609-6.033.609h-6.612v16.008h-9.048z"/></g><g fill="#616364"><path d="m351.554 229.33h-1.614l-4.111-10.072h1.636l3.271 8.523h.043l3.293-8.523h1.571z"/><path d="m359.41 229.33h-1.464v-10.072h1.464zm.301-13.947c0 .302-.107.549-.323.743-.215.194-.452.29-.71.29s-.495-.096-.71-.29-.323-.441-.323-.743c0-.301.108-.548.323-.742s.452-.291.71-.291.495.097.71.291c.216.194.323.441.323.742z"/><path d="m363.306 221.474c0-.272-.008-.624-.022-1.054-.014-.431-.036-.818-.064-1.162h1.399c.028.272.05.573.064.904.014.33.022.602.022.817h.043c.287-.588.717-1.065 1.291-1.431s1.22-.549 1.937-.549c.187 0 .355.007.506.022.151.014.305.043.463.086l-.194 1.377c-.086-.028-.23-.057-.43-.086-.201-.028-.402-.043-.603-.043-.388 0-.761.072-1.119.215-.359.144-.671.37-.937.678-.265.309-.48.704-.645 1.184-.165.481-.248 1.058-.248 1.733v5.165h-1.463z"/><path d="m375.337 220.484h-2.841v5.876c0 .373.036.682.108.926.071.244.175.434.312.57.136.136.297.23.484.28s.387.075.603.075c.201 0 .412-.029.635-.086.222-.057.434-.136.635-.237l.064 1.27c-.258.101-.527.176-.807.226s-.585.076-.915.076c-.272 0-.559-.036-.861-.108-.301-.072-.581-.208-.839-.409s-.47-.474-.635-.818-.248-.796-.248-1.356v-6.285h-2.087v-1.226h2.087v-2.842h1.464v2.842h2.841z"/><path d="m384.936 229.33c-.028-.272-.05-.574-.064-.904s-.022-.602-.022-.817h-.043c-.287.588-.753 1.065-1.399 1.431-.645.366-1.327.549-2.044.549-1.277 0-2.235-.381-2.874-1.141-.638-.761-.958-1.765-.958-3.013v-6.177h1.464v5.574c0 .531.043 1.012.129 1.442.086.431.233.8.441 1.109.208.308.488.548.84.721.351.172.793.258 1.323.258.388 0 .765-.079 1.13-.237.366-.158.693-.398.98-.721s.516-.732.688-1.227c.173-.495.259-1.079.259-1.754v-5.165h1.463v7.856c0 .272.008.624.022 1.054.014.431.036.818.064 1.162z"/><path d="m397.807 223.519c-.043-.947-.348-1.732-.914-2.357-.567-.624-1.374-.936-2.422-.936-.488 0-.94.09-1.356.269s-.782.423-1.097.732c-.316.308-.567.66-.754 1.055-.186.394-.294.807-.323 1.237zm1.485.474v.322c0 .115-.007.237-.021.366h-8.351c.014.503.115.976.301 1.421.187.445.445.832.775 1.162s.717.592 1.162.786c.445.193.926.29 1.442.29.761 0 1.417-.175 1.97-.527.552-.352.972-.757 1.259-1.216l1.098.861c-.603.76-1.267 1.306-1.991 1.636-.725.33-1.503.495-2.336.495-.746 0-1.438-.133-2.077-.399-.638-.265-1.187-.634-1.646-1.108-.459-.473-.822-1.033-1.087-1.679-.266-.645-.398-1.349-.398-2.109 0-.761.129-1.464.387-2.109.258-.646.617-1.206 1.076-1.679.459-.474.998-.843 1.615-1.109.617-.265 1.284-.398 2.001-.398.789 0 1.485.133 2.088.398.603.266 1.105.625 1.507 1.077.401.452.706.979.914 1.582.208.602.312 1.248.312 1.937z"/><path d="m402.478 213.059h1.464v16.272h-1.464z"/><path d="m407.902 213.059h1.464v16.272h-1.464z"/><path d="m420.966 223.519c-.043-.947-.348-1.732-.914-2.357-.567-.624-1.374-.936-2.422-.936-.488 0-.94.09-1.356.269s-.782.423-1.097.732c-.316.308-.567.66-.754 1.055-.186.394-.294.807-.323 1.237zm1.485.474v.322c0 .115-.007.237-.021.366h-8.351c.014.503.115.976.301 1.421.187.445.445.832.775 1.162s.717.592 1.162.786c.445.193.926.29 1.442.29.761 0 1.417-.175 1.97-.527.552-.352.972-.757 1.259-1.216l1.097.861c-.602.76-1.266 1.306-1.99 1.636-.725.33-1.503.495-2.336.495-.746 0-1.438-.133-2.077-.399-.638-.265-1.187-.634-1.646-1.108-.459-.473-.822-1.033-1.087-1.679-.266-.645-.398-1.349-.398-2.109 0-.761.129-1.464.387-2.109.258-.646.617-1.206 1.076-1.679.459-.474.998-.843 1.615-1.109.617-.265 1.284-.398 2.001-.398.789 0 1.485.133 2.088.398.603.266 1.105.625 1.507 1.077.401.452.706.979.914 1.582.208.602.312 1.248.312 1.937z"/><path d="m425.594 221.474c0-.272-.007-.624-.022-1.054-.014-.431-.036-.818-.064-1.162h1.399c.028.272.05.573.064.904.015.33.022.602.022.817h.043c.287-.588.717-1.065 1.291-1.431s1.22-.549 1.937-.549c.187 0 .355.007.506.022.151.014.305.043.463.086l-.194 1.377c-.086-.028-.229-.057-.43-.086-.201-.028-.402-.043-.603-.043-.387 0-.76.072-1.119.215-.359.144-.671.37-.936.678-.266.309-.481.704-.646 1.184-.165.481-.248 1.058-.248 1.733v5.165h-1.463z"/><path d="m445.976 221.561c-.244-.388-.599-.707-1.065-.958-.467-.251-.972-.377-1.518-.377-.588 0-1.119.104-1.592.312-.474.208-.879.495-1.216.861-.338.366-.596.796-.775 1.291-.18.496-.269 1.03-.269 1.604s.089 1.105.269 1.593c.179.488.434.914.764 1.28s.732.653 1.205.861c.474.208 1.005.312 1.593.312.646 0 1.191-.122 1.636-.366.444-.243.81-.559 1.097-.947l1.098.818c-.43.531-.958.954-1.582 1.27s-1.374.474-2.249.474c-.818 0-1.557-.133-2.217-.399-.66-.265-1.223-.634-1.69-1.108-.466-.473-.828-1.033-1.086-1.679-.259-.645-.388-1.349-.388-2.109 0-.761.129-1.464.388-2.109.258-.646.62-1.206 1.086-1.679.467-.474 1.03-.843 1.69-1.109.66-.265 1.399-.398 2.217-.398.674 0 1.359.147 2.055.441.696.295 1.259.729 1.69 1.303z"/><path d="m455.834 222.83c0-.875-.23-1.528-.689-1.958-.459-.431-1.126-.646-2.002-.646-.602 0-1.162.108-1.678.323-.517.215-.955.502-1.313.861l-.818-.969c.416-.416.965-.76 1.646-1.033.682-.272 1.453-.409 2.314-.409.545 0 1.055.076 1.528.226.474.151.89.377 1.249.678.358.302.638.682.839 1.141s.301.997.301 1.614v4.412c0 .388.015.79.043 1.206.029.416.072.767.13 1.054h-1.313c-.043-.244-.079-.509-.108-.796s-.043-.567-.043-.839h-.043c-.459.674-.979 1.158-1.561 1.452-.581.295-1.28.442-2.098.442-.387 0-.786-.054-1.195-.162-.409-.107-.782-.283-1.119-.527s-.617-.56-.839-.947c-.223-.388-.334-.861-.334-1.421 0-.774.197-1.388.592-1.84s.922-.789 1.582-1.011c.66-.223 1.417-.366 2.271-.431.853-.064 1.74-.097 2.658-.097zm-.431 1.464c-.602 0-1.209.025-1.818.075-.61.051-1.163.151-1.658.302-.495.15-.9.369-1.216.656-.315.287-.473.667-.473 1.141 0 .359.068.66.204.904.137.244.32.441.549.592.23.15.484.258.764.323.28.064.563.096.85.096.517 0 .976-.089 1.378-.269.402-.179.739-.423 1.011-.731.273-.309.481-.664.625-1.066.143-.402.215-.825.215-1.27v-.753z"/><path d="m462.42 220.979c.287-.588.728-1.065 1.324-1.431.595-.366 1.259-.549 1.991-.549.272 0 .556.029.85.086.294.058.581.169.861.334.279.165.538.384.774.656.237.273.442.625.614 1.055.344-.689.814-1.216 1.41-1.582.595-.366 1.302-.549 2.12-.549 1.277 0 2.234.381 2.873 1.141s.958 1.765.958 3.013v6.177h-1.464v-5.574c0-1.062-.197-1.916-.592-2.561-.394-.646-1.065-.969-2.012-.969-.531 0-.979.108-1.345.323s-.66.499-.883.85c-.222.352-.384.75-.484 1.195-.1.444-.151.904-.151 1.377v5.359h-1.463v-5.875c0-.488-.036-.933-.108-1.335s-.197-.742-.377-1.022c-.179-.28-.426-.495-.742-.646s-.718-.226-1.205-.226c-.345 0-.693.079-1.044.237-.352.158-.667.398-.947.721s-.506.732-.678 1.227-.259 1.079-.259 1.754v5.165h-1.463v-7.856c0-.272-.007-.624-.022-1.054-.014-.431-.036-.818-.064-1.162h1.399c.029.272.05.573.064.904.015.33.022.602.022.817z"/><path d="m481.446 234.496h-1.463v-15.238h1.463v1.743h.065c.416-.66.972-1.159 1.668-1.496s1.403-.506 2.12-.506c.789 0 1.503.137 2.142.409.638.273 1.183.646 1.635 1.119.452.474.804 1.034 1.055 1.679.251.646.377 1.342.377 2.088s-.126 1.442-.377 2.088c-.251.645-.603 1.205-1.055 1.679-.452.473-.997.846-1.635 1.119-.639.272-1.353.409-2.142.409-.717 0-1.424-.169-2.12-.506s-1.252-.822-1.668-1.453h-.065zm7.512-10.202c0-.56-.086-1.087-.258-1.582s-.42-.925-.743-1.291-.721-.657-1.194-.872c-.474-.215-1.012-.323-1.615-.323-.559 0-1.076.104-1.549.312-.474.208-.883.495-1.227.861s-.613.796-.807 1.291c-.194.496-.291 1.03-.291 1.604s.097 1.108.291 1.603.463.922.807 1.281.753.642 1.227.85c.473.208.99.312 1.549.312.603 0 1.141-.104 1.615-.312.473-.208.871-.495 1.194-.861s.571-.796.743-1.291.258-1.022.258-1.582z"/><path d="m500.968 229.33c-.029-.272-.05-.574-.065-.904-.014-.33-.021-.602-.021-.817h-.043c-.287.588-.753 1.065-1.399 1.431s-1.327.549-2.045.549c-1.277 0-2.235-.381-2.873-1.141-.639-.761-.958-1.765-.958-3.013v-6.177h1.464v5.574c0 .531.043 1.012.129 1.442.086.431.233.8.441 1.109.208.308.488.548.839.721.352.172.793.258 1.324.258.387 0 .764-.079 1.13-.237s.692-.398.979-.721.517-.732.689-1.227.258-1.079.258-1.754v-5.165h1.464v7.856c0 .272.007.624.021 1.054.015.431.036.818.065 1.162z"/><path d="m511.514 221.647c-.215-.416-.541-.757-.979-1.023-.438-.265-.936-.398-1.496-.398-.258 0-.516.029-.775.086-.258.058-.487.151-.688.28s-.363.294-.485.495-.183.438-.183.71c0 .474.194.836.582 1.087.387.251.997.463 1.829.635 1.191.244 2.07.599 2.637 1.066.566.466.85 1.094.85 1.883 0 .574-.111 1.058-.334 1.453-.222.394-.513.717-.872.968-.358.251-.764.431-1.216.538-.452.108-.907.162-1.366.162-.761 0-1.5-.158-2.217-.474-.718-.316-1.306-.811-1.765-1.485l1.162-.861c.258.445.639.818 1.141 1.119.502.302 1.055.452 1.657.452.316 0 .617-.028.904-.086.287-.057.538-.158.753-.301.216-.144.388-.327.517-.549s.194-.499.194-.829c0-.53-.255-.929-.764-1.194-.51-.266-1.245-.513-2.206-.743-.302-.071-.621-.161-.958-.269-.337-.107-.65-.265-.937-.473s-.523-.47-.71-.786c-.186-.315-.28-.71-.28-1.184 0-.516.101-.957.302-1.323s.47-.667.807-.904.721-.413 1.151-.528c.431-.114.876-.172 1.335-.172.703 0 1.384.158 2.044.474.661.315 1.156.76 1.486 1.334z"/><path d="m347.421 247.302c0-.272-.007-.624-.021-1.054-.014-.431-.036-.818-.065-1.163h1.399c.029.273.051.574.065.904s.021.603.021.818h.044c.287-.588.717-1.065 1.291-1.431s1.22-.549 1.937-.549c.187 0 .355.007.506.022.15.014.305.043.463.086l-.194 1.377c-.086-.028-.23-.057-.431-.086-.2-.029-.401-.043-.602-.043-.388 0-.761.072-1.119.215-.359.144-.671.37-.937.678-.265.309-.48.703-.645 1.184s-.248 1.058-.248 1.733v5.165h-1.464z"/><path d="m356.72 246.743c.272-.589.724-1.055 1.355-1.399.632-.345 1.306-.517 2.024-.517 1.277 0 2.234.38 2.873 1.141.639.76.958 1.765.958 3.013v6.177h-1.464v-5.574c0-.531-.043-1.012-.129-1.442-.086-.431-.233-.8-.441-1.109-.208-.308-.488-.549-.84-.721-.351-.172-.792-.258-1.323-.258-.388 0-.764.079-1.13.237s-.693.398-.98.721c-.286.323-.516.731-.688 1.227-.172.495-.259 1.079-.259 1.754v5.165h-1.463v-16.271h1.463v7.856z"/><path d="m375.402 249.347c-.043-.947-.348-1.733-.915-2.357s-1.374-.936-2.421-.936c-.488 0-.94.09-1.356.269-.417.179-.782.423-1.098.732-.316.308-.567.66-.753 1.054-.187.395-.295.808-.323 1.238zm1.485.473v.323c0 .115-.007.237-.022.366h-8.351c.015.502.115.976.302 1.421.186.445.444.832.774 1.162s.718.592 1.163.786c.444.193.925.29 1.442.29.76 0 1.417-.176 1.969-.527.552-.352.972-.757 1.259-1.216l1.098.861c-.603.76-1.266 1.305-1.991 1.635-.725.331-1.503.496-2.335.496-.746 0-1.439-.133-2.077-.399-.639-.265-1.188-.635-1.647-1.108-.459-.474-.821-1.033-1.087-1.679-.265-.646-.398-1.349-.398-2.109 0-.761.129-1.464.387-2.109.259-.646.617-1.206 1.077-1.679.459-.474.997-.843 1.614-1.109.617-.265 1.284-.398 2.002-.398.789 0 1.485.133 2.087.398.603.266 1.105.624 1.507 1.076s.707.98.915 1.582c.208.603.312 1.249.312 1.937z"/><path d="m381.514 255.158h-1.463v-10.073h1.463zm.302-13.947c0 .302-.108.549-.323.743-.216.193-.452.29-.711.29-.258 0-.495-.097-.71-.29-.215-.194-.323-.441-.323-.743 0-.301.108-.549.323-.742.215-.194.452-.291.71-.291.259 0 .495.097.711.291.215.193.323.441.323.742z"/><path d="m386.723 245.085c.029.273.05.574.064.904.015.33.022.603.022.818h.043c.287-.588.753-1.065 1.399-1.431s1.327-.549 2.045-.549c1.277 0 2.235.38 2.873 1.141.639.76.958 1.765.958 3.013v6.177h-1.464v-5.574c0-.531-.043-1.012-.129-1.442-.086-.431-.233-.8-.441-1.109-.208-.308-.488-.549-.84-.721-.351-.172-.792-.258-1.323-.258-.388 0-.764.079-1.13.237s-.692.398-.979.721-.517.731-.689 1.227c-.172.495-.258 1.079-.258 1.754v5.165h-1.464v-7.856c0-.272-.007-.624-.022-1.054-.014-.431-.035-.818-.064-1.163z"/><path d="m397.958 238.887h1.464v16.272h-1.464z"/><path d="m409.688 248.658c0-.875-.229-1.528-.689-1.958-.459-.431-1.126-.646-2.001-.646-.603 0-1.163.108-1.679.323-.517.215-.954.502-1.313.861l-.818-.969c.416-.416.965-.76 1.647-1.033.681-.273 1.452-.409 2.313-.409.546 0 1.055.075 1.529.226.473.151.889.377 1.248.678s.638.682.839 1.141.302.997.302 1.614v4.412c0 .388.014.789.043 1.206.028.416.071.767.129 1.054h-1.313c-.043-.244-.079-.509-.108-.796-.028-.287-.043-.567-.043-.84h-.043c-.459.675-.979 1.159-1.56 1.453s-1.281.442-2.099.442c-.387 0-.785-.054-1.194-.162s-.782-.283-1.12-.527c-.337-.244-.617-.56-.839-.947-.222-.388-.334-.861-.334-1.421 0-.775.198-1.388.592-1.84.395-.452.922-.789 1.582-1.012.66-.222 1.417-.365 2.271-.43s1.74-.097 2.658-.097zm-.43 1.464c-.603 0-1.209.025-1.819.075s-1.162.151-1.657.301c-.495.151-.901.37-1.216.657-.316.287-.474.667-.474 1.141 0 .358.068.66.205.904.136.244.319.441.548.592.23.15.485.258.764.322.28.065.564.097.851.097.516 0 .975-.089 1.377-.269.402-.179.739-.423 1.012-.732.272-.308.48-.663.624-1.065.143-.402.215-.825.215-1.27v-.753z"/><path d="m416.145 245.085c.029.273.05.574.065.904.014.33.021.603.021.818h.043c.287-.588.754-1.065 1.399-1.431.646-.366 1.327-.549 2.045-.549 1.277 0 2.235.38 2.873 1.141.639.76.958 1.765.958 3.013v6.177h-1.464v-5.574c0-.531-.043-1.012-.129-1.442-.086-.431-.233-.8-.441-1.109-.208-.308-.488-.549-.839-.721-.352-.172-.793-.258-1.324-.258-.387 0-.764.079-1.13.237s-.692.398-.979.721-.517.731-.689 1.227c-.172.495-.258 1.079-.258 1.754v5.165h-1.464v-7.856c0-.272-.007-.624-.021-1.054-.015-.431-.036-.818-.065-1.163z"/><path d="m435.624 253.458c-.431.646-.991 1.133-1.679 1.463-.689.331-1.399.496-2.131.496-.789 0-1.503-.137-2.142-.409-.638-.273-1.183-.646-1.635-1.12-.452-.473-.804-1.033-1.055-1.678-.251-.646-.377-1.342-.377-2.088s.126-1.442.377-2.088.603-1.205 1.055-1.679c.452-.473.997-.846 1.635-1.119.639-.273 1.353-.409 2.142-.409.732 0 1.442.169 2.131.506.688.337 1.248.836 1.679 1.496h.043v-7.942h1.463v16.271h-1.463v-1.7zm-7.469-3.336c0 .559.086 1.087.258 1.582s.42.925.743 1.291.721.653 1.194.861c.474.208 1.012.312 1.615.312.559 0 1.076-.104 1.549-.312.474-.208.883-.491 1.227-.85s.614-.786.807-1.281c.194-.495.291-1.029.291-1.603s-.097-1.109-.291-1.604c-.193-.495-.463-.925-.807-1.291s-.753-.653-1.227-.861c-.473-.208-.99-.312-1.549-.312-.603 0-1.141.108-1.615.323-.473.215-.871.506-1.194.871-.323.366-.571.797-.743 1.292s-.258 1.022-.258 1.582z"/><path d="m440.143 249.325h4.821v1.227h-4.821z"/><path d="m449.398 260.324h-1.463v-15.239h1.463v1.744h.065c.416-.66.972-1.159 1.668-1.496s1.403-.506 2.12-.506c.789 0 1.503.136 2.142.409.638.273 1.183.646 1.635 1.119.452.474.804 1.033 1.055 1.679s.377 1.342.377 2.088-.126 1.442-.377 2.088c-.251.645-.603 1.205-1.055 1.678-.452.474-.997.847-1.635 1.12-.639.272-1.353.409-2.142.409-.717 0-1.424-.169-2.12-.506s-1.252-.822-1.668-1.453h-.065zm7.512-10.202c0-.56-.086-1.087-.258-1.582s-.42-.926-.743-1.292c-.323-.365-.721-.656-1.194-.871-.474-.215-1.012-.323-1.615-.323-.559 0-1.076.104-1.549.312-.474.208-.883.495-1.227.861s-.614.796-.807 1.291c-.194.495-.291 1.03-.291 1.604s.097 1.108.291 1.603c.193.495.463.922.807 1.281s.753.642 1.227.85c.473.208.99.312 1.549.312.603 0 1.141-.104 1.615-.312.473-.208.871-.495 1.194-.861s.571-.796.743-1.291.258-1.023.258-1.582z"/><path d="m465.864 246.312h-2.368v8.846h-1.463v-8.846h-2.11v-1.227h2.11v-2.755c0-1.147.279-2.051.839-2.712.56-.66 1.42-.99 2.583-.99.186 0 .387.011.602.033.216.021.416.061.603.118l-.258 1.291c-.158-.043-.316-.078-.474-.107s-.337-.043-.538-.043c-.387 0-.707.064-.958.194-.251.129-.444.312-.581.548-.136.237-.229.513-.28.829-.05.316-.075.653-.075 1.012v2.582h2.368z"/><path d="m474.301 248.658c0-.875-.23-1.528-.689-1.958-.459-.431-1.126-.646-2.002-.646-.602 0-1.162.108-1.678.323-.517.215-.955.502-1.313.861l-.818-.969c.416-.416.965-.76 1.646-1.033.682-.273 1.453-.409 2.314-.409.545 0 1.055.075 1.528.226.474.151.89.377 1.249.678.358.301.638.682.839 1.141s.301.997.301 1.614v4.412c0 .388.015.789.043 1.206.029.416.072.767.129 1.054h-1.312c-.044-.244-.079-.509-.108-.796s-.043-.567-.043-.84h-.043c-.459.675-.98 1.159-1.561 1.453s-1.28.442-2.098.442c-.388 0-.786-.054-1.195-.162s-.782-.283-1.119-.527-.617-.56-.839-.947c-.223-.388-.334-.861-.334-1.421 0-.775.197-1.388.592-1.84s.922-.789 1.582-1.012c.66-.222 1.417-.365 2.271-.43.853-.065 1.739-.097 2.658-.097zm-.431 1.464c-.602 0-1.209.025-1.818.075-.61.05-1.163.151-1.658.301-.495.151-.9.37-1.216.657-.315.287-.473.667-.473 1.141 0 .358.068.66.204.904.137.244.319.441.549.592.23.15.484.258.764.322.28.065.563.097.85.097.517 0 .976-.089 1.378-.269.402-.179.739-.423 1.011-.732.273-.308.481-.663.625-1.065.143-.402.215-.825.215-1.27v-.753z"/><path d="m479.488 238.887h1.464v16.272h-1.464z"/><path d="m491.562 246.118-6.026 7.77h6.242v1.27h-8.179v-1.033l6.005-7.813h-5.704v-1.227h7.662z"/></g></g></svg>
